<svg width="65" height="64" viewBox="0 0 65 64" fill="none" xmlns="http://www.w3.org/2000/svg">
<path d="M32.5 0C14.5519 0 0 14.328 0 32C0 49.672 14.5519 64 32.5 64C50.4481 64 65 49.672 65 32C65 14.328 50.4481 0 32.5 0ZM29.1077 31.4199C28.8558 35.524 26.9749 41.668 19.4471 47.648C19.0855 47.928 18.663 48.068 18.2406 48.068C17.6516 48.068 17.0706 47.8039 16.6846 47.2919C16.0184 46.412 16.1727 45.148 17.0339 44.468C21.4937 40.9266 23.597 37.438 24.5263 34.5399C24.9208 33.3098 23.5218 32.356 22.2299 32.356V32.356C18.923 32.356 16.2458 29.6161 16.2458 26.2361C16.2458 22.8561 18.927 20.1161 22.2299 20.1161C22.9686 20.1161 23.6477 20.3037 24.2948 20.5589C24.3034 20.5623 24.3119 20.5536 24.3083 20.5451V20.5451C24.3045 20.5363 24.3136 20.5276 24.3223 20.5316L24.9883 20.8441L25.0117 20.8533C25.0366 20.8631 25.0602 20.8762 25.0817 20.8921V20.8921L25.8815 21.4498C25.9792 21.5179 26.0705 21.5945 26.1545 21.6788L26.4426 21.9681C27.9175 23.412 29.5384 26.168 29.1077 31.4199ZM48.8069 31.416C48.5549 35.5201 46.674 41.6641 39.1421 47.6441C38.7805 47.9281 38.3581 48.0681 37.9356 48.0681C37.3466 48.0681 36.7657 47.8001 36.3797 47.288C35.7134 46.404 35.8677 45.1441 36.729 44.4641C41.1874 40.9209 43.2907 37.4348 44.2205 34.5382C44.6133 33.3144 43.2102 32.356 41.9249 32.356V32.356C38.6222 32.356 35.9408 29.6161 35.9408 26.2361C35.9408 22.8561 38.614 20.1161 41.9249 20.1161C42.6674 20.1161 43.3464 20.3035 43.9933 20.5586C44.0016 20.5619 44.0096 20.5532 44.0055 20.5452V20.5452C44.0013 20.537 44.0099 20.5282 44.0182 20.5321L44.6833 20.8441L44.7067 20.8533C44.7317 20.8631 44.7552 20.8762 44.7768 20.8921V20.8921L45.5807 21.4526C45.6756 21.5188 45.7646 21.5931 45.8466 21.6747L46.1418 21.9681C47.6165 23.412 49.2293 26.168 48.8069 31.416Z" fill="white"/>
</svg>
