<svg viewBox="0 0 18 13" fill="none" xmlns="http://www.w3.org/2000/svg">
<path d="M2.02601 5.81324e-07C1.01046 -0.000930004 0.147892 0.727644 1.39228e-08 1.71138H4.05201C3.90412 0.727644 3.04156 -0.000967227 2.02601 5.81324e-07Z" transform="translate(6.89233 11.2886)" fill="white"/>
<path d="M17.5984 6.91297L15.2546 1.91502H16.3471C16.5116 1.91502 16.645 1.7844 16.645 1.6233C16.645 1.46219 16.5116 1.33158 16.3471 1.33158H10.6067C10.4033 0.418637 9.48245 -0.159964 8.55001 0.0392554C7.88982 0.180295 7.37414 0.685193 7.23008 1.33158H1.48974C1.3252 1.33158 1.19179 1.46219 1.19179 1.6233C1.19179 1.7844 1.3252 1.91502 1.48974 1.91502H2.5822L0.238401 6.91297C0.0974279 6.94111 -0.00286498 7.06383 6.2448e-05 7.20469C2.44294e-05 8.86191 1.36637 10.2083 3.05892 10.219C4.74709 10.2086 6.11603 8.87691 6.13766 7.22416C6.13511 7.07039 6.03033 6.93627 5.87944 6.89354L3.53563 1.91498H7.21024C7.32559 2.59062 7.84135 3.13386 8.52119 3.29575V10.6663H9.11706V3.33464C9.88602 3.24132 10.5004 2.66351 10.6266 1.91498H14.3012L11.9574 6.8935C11.8096 6.92845 11.7039 7.05583 11.6992 7.20465C11.6992 8.86187 13.0655 10.2083 14.7581 10.219C16.4494 10.198 17.8154 8.86068 17.8368 7.20465C17.8397 7.06383 17.7394 6.94111 17.5984 6.91297ZM5.22396 6.9713H0.893878L3.05892 2.42062L5.22396 6.9713ZM12.6129 6.9713L14.7779 2.42062L16.943 6.9713H12.6129Z" fill="white"/>
</svg>
