<svg id="Layer_1" data-name="Layer 1" xmlns="http://www.w3.org/2000/svg" viewBox="0 0 30 30"><defs><style>.cls-1{fill:#fff;}</style></defs><title>Artboard 1</title><path class="cls-1" d="M24,0H6A5.83,5.83,0,0,0,0,5.63V24.38A5.82,5.82,0,0,0,6,30H24a5.82,5.82,0,0,0,6-5.62V5.63A5.83,5.83,0,0,0,24,0ZM19.64,22A22,22,0,0,1,15,26.25a19.73,19.73,0,0,1-4.65-4.09c-2-2.3-4.39-5.88-4.39-10a8.74,8.74,0,0,1,9-8.44,8.74,8.74,0,0,1,9,8.44C24,16,21.63,19.63,19.64,22ZM15,6a7,7,0,0,0-7,7,7.3,7.3,0,0,0,.14,1.4A7,7,0,1,0,15,6Zm3.94,8.4A4.15,4.15,0,1,1,19.2,13,4,4,0,0,1,18.94,14.4Z"/></svg>