<svg width="14" height="12" viewBox="0 0 14 12" fill="none" xmlns="http://www.w3.org/2000/svg">
<path d="M13.7165 0H0.284016C0.126403 0 0 0.124931 0 0.278022V11.7204C0 11.873 0.126403 12 0.284016 12H13.7165C13.8731 12 14 11.873 14 11.7204V0.278022C14 0.124931 13.8731 0 13.7165 0ZM5.2699 2.5237C5.2699 3.34497 4.59471 4.00649 3.76399 4.00649C2.93067 4.00649 2.25756 3.34497 2.25756 2.5237C2.25756 1.70448 2.93119 1.04092 3.76399 1.04092C4.59471 1.04041 5.2699 1.70448 5.2699 2.5237ZM12.8764 10.5669H11.9359V11.5131H11.1177V10.5669H10.1658V9.762H11.1177V8.84601H11.9359V9.762H12.8764V10.5669ZM13.0585 8.54444H1.96574H1.07728V8.43077L3.4446 5.76729L4.77781 6.65256L6.33053 4.03209L8.13658 5.29163L9.76421 1.96459L13.0782 8.42258V8.54444H13.0585Z" fill="#1B998B"/>
</svg>
