<svg width="32" height="32" viewBox="0 0 32 32" fill="none" xmlns="http://www.w3.org/2000/svg">
<path d="M27.3191 4.68742C26.0926 3.46126 24.7205 2.46502 23.2411 1.72639C22.919 1.56551 22.5279 1.69632 22.3672 2.01809C22.2065 2.33996 22.3371 2.7311 22.659 2.89176C24.0127 3.56764 25.2706 4.4817 26.3977 5.60853C32.131 11.3405 32.131 20.667 26.3977 26.399C20.6644 32.1309 11.3357 32.1309 5.60238 26.399C-0.130924 20.667 -0.130924 11.3405 5.60238 5.60853C8.37962 2.83184 12.0723 1.30269 15.9999 1.30269C16.3596 1.30269 16.6514 1.011 16.6514 0.651347C16.6514 0.291695 16.3596 0 15.9999 0C11.7242 0 7.70445 1.66462 4.68095 4.68742C-1.56032 10.9272 -1.56032 21.0803 4.68095 27.3201C7.80163 30.44 11.9008 32 16 32C20.0992 32 24.1984 30.44 27.3191 27.3201C33.5603 21.0803 33.5603 10.9272 27.3191 4.68742Z" fill="#1B998B"/>
<path d="M16 5.64453C15.6402 5.64453 15.3485 5.93623 15.3485 6.29588V25.7124C15.3485 26.0722 15.6402 26.3638 16 26.3638C16.3597 26.3638 16.6515 26.0722 16.6515 25.7124V6.29588C16.6515 5.93612 16.3597 5.64453 16 5.64453Z" fill="#1B998B"/>
<path d="M18.606 16.6543H25.7106C26.0703 16.6543 26.3621 16.3626 26.3621 16.0029C26.3621 15.6433 26.0703 15.3516 25.7106 15.3516H18.606C18.2463 15.3516 17.9545 15.6433 17.9545 16.0029C17.9545 16.3626 18.2462 16.6543 18.606 16.6543Z" fill="#1B998B"/>
<path d="M6.28938 15.3516C5.92964 15.3516 5.63788 15.6433 5.63788 16.0029C5.63788 16.3626 5.92964 16.6543 6.28938 16.6543H13.1768C13.5366 16.6543 13.8283 16.3626 13.8283 16.0029C13.8283 15.6433 13.5366 15.3516 13.1768 15.3516H6.28938Z" fill="#1B998B"/>
</svg>
