<svg width="21" height="22" viewBox="0 0 21 22" fill="none" xmlns="http://www.w3.org/2000/svg">
<path d="M21 4C21 1.7944 19.2554 0 17.1111 0C15.3732 0 13.8985 1.1792 13.4015 2.8H2.03583C0.9135 2.8 0 3.7396 0 4.894V19.9056C0 21.0604 0.9135 22 2.03583 22H16.6304C17.7532 22 18.6663 21.0604 18.6663 19.906V7.6636C20.0383 7.0448 21 5.6364 21 4ZM17.8889 19.906C17.8889 20.6196 17.3246 21.2 16.6308 21.2H2.03583C1.34206 21.2 0.777778 20.6196 0.777778 19.906V4.894C0.777778 4.1804 1.34206 3.6 2.03583 3.6H13.2417C13.2292 3.7316 13.2222 3.8648 13.2222 4C13.2222 6.2056 14.9668 8 17.1111 8C17.3775 8 17.6377 7.972 17.8889 7.9192V19.906ZM18.1432 7.0152C18.0662 7.0432 17.9884 7.0672 17.9103 7.0892C17.8963 7.0932 17.8819 7.0968 17.8679 7.1004C17.7991 7.1184 17.7298 7.134 17.6602 7.1472C17.6244 7.154 17.5879 7.1588 17.5517 7.1644C17.4996 7.1724 17.4471 7.1804 17.395 7.1856C17.3013 7.194 17.2068 7.2 17.1111 7.2C15.3957 7.2 14 5.7644 14 4C14 3.768 14.0268 3.5292 14.0801 3.2892C14.3955 1.866 15.6333 0.8 17.1111 0.8C18.8265 0.8 20.2222 2.2356 20.2222 4C20.2222 5.392 19.3519 6.576 18.1432 7.0152Z" fill="#1B998B"/>
</svg>
