<svg width="17" height="18" viewBox="0 0 17 18" fill="none" xmlns="http://www.w3.org/2000/svg">
<path d="M16.2508 2.95319C15.9979 2.69872 15.6978 2.57147 15.3514 2.57147H14.0722V1.60715C14.0722 1.16528 13.9155 0.786901 13.6024 0.472169C13.2891 0.157436 12.9128 0 12.4729 0H11.8335C11.3936 0 11.0172 0.157436 10.7041 0.472204C10.3908 0.786901 10.2342 1.16531 10.2342 1.60719V2.57151H6.39657V1.60719C6.39657 1.16531 6.23992 0.786936 5.92673 0.472204C5.61361 0.157436 5.23716 0 4.79732 0H4.15773C3.71799 0 3.34151 0.157436 3.02832 0.472204C2.71519 0.786901 2.55851 1.16531 2.55851 1.60719V2.57151H1.27934C0.932789 2.57151 0.633003 2.69876 0.379809 2.95323C0.126615 3.20766 0 3.50909 0 3.85728V16.7144C0 17.0623 0.126615 17.3637 0.379809 17.6183C0.632968 17.8727 0.932754 18 1.27934 18H15.3511C15.6976 18 15.9977 17.8727 16.2506 17.6183C16.5038 17.3638 16.6304 17.0623 16.6304 16.7144V3.85725C16.6304 3.50895 16.5039 3.20766 16.2508 2.95319ZM11.5137 1.60729C11.5137 1.51347 11.5434 1.43638 11.6033 1.37626C11.6632 1.31606 11.7398 1.28591 11.8333 1.28591H12.4727C12.5662 1.28591 12.6426 1.31596 12.7027 1.37626C12.7627 1.43649 12.7926 1.51357 12.7926 1.60729V4.50004C12.7926 4.59384 12.7627 4.67078 12.7027 4.73108C12.6426 4.7912 12.5662 4.82143 12.4727 4.82143H11.8333C11.7398 4.82143 11.6632 4.79135 11.6033 4.73108C11.5434 4.67074 11.5137 4.59384 11.5137 4.50004V1.60729ZM3.83796 1.60729C3.83796 1.51347 3.86789 1.43638 3.92785 1.37626C3.98785 1.31606 4.06441 1.28591 4.15773 1.28591H4.79732C4.89067 1.28591 4.96737 1.31596 5.0272 1.37626C5.08709 1.43649 5.11716 1.51357 5.11716 1.60729V4.50004C5.11716 4.59384 5.08723 4.67088 5.0272 4.73108C4.96723 4.7912 4.89067 4.82143 4.79732 4.82143H4.15773C4.06441 4.82143 3.98775 4.79135 3.92785 4.73108C3.86803 4.67074 3.83796 4.59384 3.83796 4.50004V1.60729ZM15.3511 16.7142H1.27934V6.42861H15.3511V16.7142Z" fill="#1B998B"/>
</svg>
