<svg width="24" height="24" viewBox="0 0 24 24" fill="none" xmlns="http://www.w3.org/2000/svg">
<path d="M12 24C18.6166 24 24 18.6166 24 12C24 5.38336 18.6166 0 12 0C5.38336 0 0 5.38336 0 12C0 18.6166 5.38336 24 12 24ZM12 1.19902C17.956 1.19902 22.801 6.04405 22.801 12C22.801 17.956 17.956 22.801 12 22.801C6.04405 22.801 1.19902 17.956 1.19902 12C1.19902 6.04405 6.04405 1.19902 12 1.19902Z" fill="#1B998B"/>
<path d="M8.82364 15.177C8.9411 15.2944 9.09281 15.3532 9.24942 15.3532C9.40603 15.3532 9.55774 15.2944 9.67519 15.177L12.0047 12.8475L14.3342 15.177C14.4517 15.2944 14.6034 15.3532 14.76 15.3532C14.9166 15.3532 15.0683 15.2944 15.1858 15.177C15.4207 14.9421 15.4207 14.5652 15.1858 14.3303L12.8465 12.0008L15.176 9.67128C15.4109 9.43637 15.4109 9.05953 15.176 8.82462C14.9411 8.58971 14.5643 8.58971 14.3294 8.82462L11.9998 11.1541L9.6703 8.82462C9.43539 8.58971 9.05855 8.58971 8.82364 8.82462C8.58873 9.05953 8.58873 9.43637 8.82364 9.67128L11.1532 12.0008L8.82364 14.3303C8.58873 14.5652 8.58873 14.9421 8.82364 15.177Z" fill="#1B998B"/>
</svg>
