<svg width="23" height="17" viewBox="0 0 23 17" fill="none" xmlns="http://www.w3.org/2000/svg">
<path d="M21.85 0H1.15C0.514895 0 0 0.496358 0 1.1087V15.8913C0 16.5036 0.51485 17 1.15 17H21.85C22.4851 17 23 16.5036 23 15.8913V1.1087C23 0.496402 22.4851 0 21.85 0ZM22.2333 15.8913C22.2333 16.0955 22.0617 16.2609 21.85 16.2609H1.15C0.938283 16.2609 0.766682 16.0955 0.766682 15.8913V1.1087C0.766682 0.904584 0.938283 0.739146 1.15 0.739146H21.85C22.0617 0.739146 22.2333 0.904584 22.2333 1.1087V15.8913Z" fill="#1B998B"/>
<path d="M21.1166 1.47799C21.0153 1.46946 20.9146 1.50008 20.8368 1.56313L11.9932 8.72527C11.708 8.95641 11.2917 8.95641 11.0065 8.72527L2.16306 1.56309C2.05817 1.47821 1.91424 1.45369 1.78553 1.49882C1.65683 1.54395 1.56286 1.65187 1.53905 1.78193C1.51524 1.91198 1.56519 2.04438 1.67009 2.12926L10.5136 9.29105C11.0836 9.75372 11.9162 9.75372 12.4862 9.29105L21.3297 2.12931C21.4076 2.06629 21.4563 1.97604 21.4651 1.87838C21.474 1.78072 21.4422 1.68366 21.3768 1.60861C21.3115 1.53347 21.2179 1.48652 21.1166 1.47799Z" fill="#1B998B"/>
<path d="M7.37276 9.24326C7.23705 9.21407 7.09563 9.25798 7.00309 9.35802L1.63641 14.9015C1.53929 14.9974 1.50362 15.1365 1.54324 15.265C1.58286 15.3934 1.69153 15.4912 1.82719 15.5203C1.9629 15.5495 2.10432 15.5056 2.19686 15.4056L7.56354 9.86209C7.66066 9.76621 7.69633 9.6271 7.65671 9.49865C7.61709 9.37019 7.50846 9.27245 7.37276 9.24326Z" fill="#1B998B"/>
<path d="M15.9967 9.35802C15.9042 9.25798 15.7627 9.21407 15.627 9.24326C15.4913 9.27245 15.3827 9.37019 15.343 9.49865C15.3034 9.62714 15.3391 9.76621 15.4362 9.86209L20.8029 15.4056C20.9484 15.5493 21.1864 15.5546 21.3387 15.4176C21.491 15.2806 21.502 15.0514 21.3633 14.9015L15.9967 9.35802Z" fill="#1B998B"/>
</svg>
