<svg width="32" height="32" viewBox="0 0 32 32" fill="none" xmlns="http://www.w3.org/2000/svg">
<path d="M12.7339 13.0054C12.617 12.8891 12.4557 12.8223 12.2914 12.8223C12.127 12.8223 11.9664 12.8891 11.8495 13.0054C11.7332 13.1216 11.667 13.2823 11.667 13.4473C11.667 13.6116 11.7332 13.7729 11.8495 13.8891C11.9664 14.0053 12.127 14.0723 12.2914 14.0723C12.4557 14.0723 12.617 14.0054 12.7339 13.8891C12.8501 13.7729 12.9164 13.6116 12.9164 13.4473C12.9164 13.2829 12.8501 13.1216 12.7339 13.0054Z" fill="#1B998B"/>
<path d="M12.2916 11.5623C12.6368 11.5623 12.9166 11.2824 12.9166 10.9373V9C12.9166 7.27688 11.5148 5.875 9.79163 5.875H8.05387C9.00719 5.33525 9.65244 4.31219 9.65244 3.14062C9.65244 1.40887 8.24356 0 6.51181 0C4.78006 0 3.37119 1.40887 3.37119 3.14062C3.37119 4.31219 4.01644 5.33525 4.96975 5.875H3.125C1.40188 5.875 0 7.27688 0 9V17.8748C0 18.2199 0.279813 18.4998 0.625 18.4998H2.5V28.5057C1.75819 28.8912 1.25 29.6664 1.25 30.5586V31.3711C1.25 31.7162 1.52981 31.9961 1.875 31.9961H11.0416C11.3868 31.9961 11.6666 31.7162 11.6666 31.3711V30.5586C11.6666 29.6664 11.1584 28.8912 10.4166 28.5057V18.4998H12.2916C12.6368 18.4998 12.9166 18.2199 12.9166 17.8748V15.5625C12.9166 15.2174 12.6368 14.9375 12.2916 14.9375C11.9464 14.9375 11.6666 15.2174 11.6666 15.5625V17.2498H10.4166V7.23212C11.1442 7.49006 11.6666 8.18519 11.6666 9V10.9373C11.6666 11.2824 11.9464 11.5623 12.2916 11.5623ZM4.62119 3.14062C4.62119 2.09812 5.46937 1.25 6.51181 1.25C7.55431 1.25 8.40244 2.09812 8.40244 3.14062C8.40244 4.18313 7.55431 5.03125 6.51181 5.03125C5.46931 5.03125 4.62119 4.18313 4.62119 3.14062ZM3.75 7.125H9.16669V15.3019H3.75V7.125ZM1.25 17.2498V9C1.25 8.18519 1.77244 7.49006 2.5 7.23212V17.2498H1.25ZM5.83331 30.7461H2.5V30.5586C2.5 29.9727 2.97663 29.4961 3.56256 29.4961H5.83331V30.7461ZM5.83331 28.2461H3.75V22.2292H5.83331V28.2461ZM6.45831 18.1405C6.11312 18.1405 5.83331 18.4204 5.83331 18.7655V20.9792H3.75V16.5519H9.16669L9.16663 20.9792H7.08331V18.7655C7.08331 18.4204 6.8035 18.1405 6.45831 18.1405ZM9.16663 22.2292V28.2461H7.08331V22.2292H9.16663ZM10.4167 30.5587V30.7461H7.08331V29.4961H9.35413C9.94006 29.4961 10.4167 29.9728 10.4167 30.5587Z" fill="#1B998B"/>
<path d="M30.379 0H16.004C15.6588 0 15.379 0.279875 15.379 0.625V3.125C15.379 3.47012 15.6588 3.75 16.004 3.75H19.6062C19.9514 3.75 20.2312 3.47012 20.2312 3.125C20.2312 2.77988 19.9514 2.5 19.6062 2.5H16.629V1.25H29.754V2.5H24.3145C23.9693 2.5 23.6895 2.77988 23.6895 3.125C23.6895 3.47012 23.9693 3.75 24.3145 3.75H30.379C30.7242 3.75 31.004 3.47012 31.004 3.125V0.625C31.004 0.279875 30.7242 0 30.379 0Z" fill="#1B998B"/>
<path d="M22.3833 2.68313C22.267 2.56688 22.1064 2.5 21.9414 2.5C21.777 2.5 21.6158 2.56681 21.4995 2.68313C21.3833 2.79938 21.3164 2.96062 21.3164 3.125C21.3164 3.28938 21.3833 3.45063 21.4995 3.56681C21.6158 3.68306 21.777 3.75 21.9414 3.75C22.1058 3.75 22.267 3.68313 22.3833 3.56681C22.4995 3.45063 22.5664 3.28938 22.5664 3.125C22.5664 2.96062 22.4995 2.79938 22.3833 2.68313Z" fill="#1B998B"/>
<path d="M21.629 5.65039H16.004C15.6588 5.65039 15.379 5.93027 15.379 6.27539V8.77539C15.379 9.12058 15.6588 9.40039 16.004 9.40039H21.629C21.9742 9.40039 22.254 9.12052 22.254 8.77539V6.27539C22.254 5.93027 21.9742 5.65039 21.629 5.65039ZM21.004 8.15039H16.629V6.90039H21.004V8.15039Z" fill="#1B998B"/>
<path d="M27.879 11.3008H16.004C15.6588 11.3008 15.379 11.5807 15.379 11.9258V14.4258C15.379 14.7709 15.6588 15.0508 16.004 15.0508H27.879C28.2242 15.0508 28.504 14.7709 28.504 14.4258V11.9258C28.504 11.5806 28.2242 11.3008 27.879 11.3008ZM27.254 13.8008H16.629V12.5508H27.254V13.8008Z" fill="#1B998B"/>
<path d="M22.254 22.5996H16.004C15.6588 22.5996 15.379 22.8795 15.379 23.2246V25.7246C15.379 26.0697 15.6588 26.3496 16.004 26.3496H22.254C22.5992 26.3496 22.879 26.0697 22.879 25.7246V23.2246C22.879 22.8795 22.5992 22.5996 22.254 22.5996ZM21.629 25.0996H16.629V23.8496H21.629V25.0996Z" fill="#1B998B"/>
<path d="M24.7462 16.9492H16.004C15.6588 16.9492 15.379 17.2291 15.379 17.5742V20.0742C15.379 20.4194 15.6588 20.6992 16.004 20.6992H24.7462C25.0914 20.6992 25.3712 20.4193 25.3712 20.0742V17.5742C25.3712 17.2291 25.0914 16.9492 24.7462 16.9492ZM24.1212 19.4492H16.629V18.1992H24.1212V19.4492Z" fill="#1B998B"/>
<path d="M26.629 28.25H16.004C15.6588 28.25 15.379 28.5299 15.379 28.875V31.375C15.379 31.7201 15.6588 32 16.004 32H26.629C26.9742 32 27.254 31.7201 27.254 31.375V28.875C27.254 28.5299 26.9742 28.25 26.629 28.25ZM26.004 30.75H16.629V29.5H26.004V30.75Z" fill="#1B998B"/>
</svg>
