<svg width="19" height="12" viewBox="0 0 19 12" fill="none" xmlns="http://www.w3.org/2000/svg">
<path d="M0.203448 5.28138C1.15596 3.69108 2.43669 2.41327 4.04543 1.44801C5.65429 0.482706 7.35317 0 9.1423 0C10.9314 0 12.6304 0.482524 14.2392 1.44801C15.8481 2.41327 17.1288 3.69108 18.0812 5.28138C18.2171 5.52441 18.2852 5.76401 18.2852 6.00018C18.2852 6.23635 18.2171 6.47596 18.0812 6.71891C17.1288 8.30929 15.8481 9.5872 14.2392 10.5522C12.6304 11.5177 10.9314 12 9.1423 12C7.35313 12 5.65425 11.5193 4.04543 10.5575C2.43669 9.5957 1.15575 8.31611 0.203448 6.71891C0.0674196 6.47596 -0.000558898 6.23646 -0.000558898 6.00018C-0.000558898 5.76401 0.0674196 5.52441 0.203448 5.28138ZM11.3312 2.43232C10.7224 1.81082 9.99285 1.49996 9.14241 1.49996C9.00641 1.49996 8.89069 1.54871 8.7954 1.64587C8.70026 1.74307 8.65244 1.86117 8.65244 2.00004C8.65244 2.13901 8.70026 2.25704 8.79519 2.35409C8.89033 2.4514 9.00613 2.5 9.14216 2.5C9.72715 2.5 10.2273 2.71191 10.6422 3.13543C11.0573 3.55922 11.2647 4.06958 11.2647 4.66678C11.2647 4.80582 11.3124 4.92378 11.4076 5.02105C11.5029 5.1184 11.6185 5.16696 11.7545 5.16696C11.8907 5.16696 12.0063 5.11829 12.1016 5.02105C12.1969 4.92378 12.2445 4.80568 12.2445 4.66678C12.2445 3.79878 11.94 3.05385 11.3312 2.43232ZM4.70856 9.40145C6.07256 10.245 7.55042 10.667 9.1423 10.667C10.7341 10.667 12.212 10.2453 13.5759 9.40145C14.9399 8.55765 16.0742 7.42393 16.979 6.00018C15.9449 4.36121 14.649 3.1354 13.0912 2.32304C13.5062 3.04517 13.7137 3.82651 13.7137 4.66674C13.7137 5.95162 13.2663 7.05031 12.3719 7.96366C11.4774 8.87701 10.4008 9.33348 9.1423 9.33348C7.88374 9.33348 6.80742 8.87675 5.91273 7.96366C5.01804 7.05057 4.57085 5.95162 4.57085 4.66674C4.57085 3.82651 4.77843 3.04506 5.19341 2.32304C3.63567 3.1354 2.33969 4.36132 1.30572 6.00018C2.21031 7.42393 3.34456 8.55765 4.70856 9.40145Z" fill="#666666"/>
</svg>
