<svg width="16" height="14" viewBox="0 0 16 14" fill="none" xmlns="http://www.w3.org/2000/svg">
<path d="M7.55472 8.98576C7.65496 9.07392 7.78012 9.1181 7.90538 9.1181C8.03064 9.1181 8.15585 9.07392 8.25604 8.98576C8.383 8.87392 11.3645 6.21644 11.3645 3.46037C11.3645 1.55233 9.81278 0 7.90543 0C5.99803 0 4.44629 1.55233 4.44629 3.46037C4.44618 6.21644 7.42776 8.87392 7.55472 8.98576ZM7.90538 2.55623C8.40057 2.55623 8.80212 2.96092 8.80212 3.46037C8.80212 3.95976 8.40057 4.36451 7.90538 4.36451C7.41003 4.36451 7.00853 3.95971 7.00853 3.46037C7.00853 2.96092 7.41003 2.55623 7.90538 2.55623Z" fill="#1B998B"/>
<path d="M14.552 8.98448L14.1513 7.58031C14.0862 7.35241 13.878 7.19531 13.6411 7.19531H10.7814C10.678 7.349 10.569 7.50328 10.4536 7.6584C9.65204 8.73534 8.83717 9.46381 8.74683 9.54344C8.5142 9.74829 8.21539 9.8611 7.9053 9.8611C7.59542 9.8611 7.29661 9.7484 7.06366 9.54334C6.97342 9.46381 6.15845 8.73523 5.35695 7.6584C5.24159 7.50328 5.13251 7.34895 5.02913 7.19531H2.16936C1.93246 7.19531 1.72426 7.35241 1.65921 7.58031L1.18164 9.25379L11.8568 11.2091L14.552 8.98448Z" fill="#1B998B"/>
<path d="M15.7904 13.3241L14.7667 9.73633L9.6875 14.0003H15.2803C15.4468 14.0003 15.6036 13.9222 15.7038 13.7894C15.8041 13.6564 15.8361 13.4842 15.7904 13.3241Z" fill="#1B998B"/>
<path d="M2.59745 10.2675L0.976984 9.9707L0.0203552 13.3234C-0.025267 13.4834 0.00672713 13.6557 0.107021 13.7885C0.207263 13.9214 0.364039 13.9995 0.530504 13.9995H2.59745V10.2675Z" fill="#1B998B"/>
<path d="M3.33984 10.4043V14.0001H8.53167L11.118 11.829L3.33984 10.4043Z" fill="#1B998B"/>
</svg>
