<svg width="30" height="31" viewBox="0 0 30 31" fill="none" xmlns="http://www.w3.org/2000/svg">
<path d="M18.8401 29.644C15.1139 29.644 13.1991 29.1022 11.9335 28.7435C11.3396 28.5751 10.9099 28.4534 10.521 28.4534H5.39136C5.14113 28.4534 4.93805 28.2484 4.93805 27.9958V17.2192C4.93805 16.9666 5.14113 16.7616 5.39136 16.7616C7.16832 16.7616 8.70775 15.7696 9.96613 13.8131C11.7349 11.0603 12.7766 9.51649 14.6461 7.08315C16.4149 4.7825 17.3949 2.25855 17.5708 1.45873L17.6361 1.13751C17.7449 0.578365 17.8573 0 18.7802 0C20.5889 0 21.5653 2.10756 21.5653 4.09157C21.5653 5.31602 21.1084 6.96326 20.1692 9.12756C19.8038 9.9704 19.8609 10.5579 20.0214 10.805C20.1012 10.9285 20.2136 10.9862 20.375 10.9862H27.5708C28.4465 11.0878 30.0005 11.7769 30.0005 13.6749C30.0005 14.9323 29.549 15.6333 29.1229 16.0149C29.5435 16.4001 30.0005 17.0718 30.0005 18.17C30.0005 19.4475 29.1619 20.2529 28.5408 20.6738C28.8618 21.0444 29.1736 21.6686 29.1736 22.6954C29.1736 24.1568 27.9388 24.899 27.1528 25.2239C27.4647 25.7931 27.5254 26.4648 27.3695 27.3872C27.1011 28.9695 24.5499 29.644 18.8401 29.644ZM5.84466 27.5382H10.521C11.0341 27.5382 11.5391 27.681 12.1783 27.8622C13.3968 28.2072 15.2381 28.7288 18.8401 28.7288C25.2625 28.7288 26.3795 27.7927 26.4747 27.2344C26.656 26.1628 26.462 25.7016 26.0893 25.3044C25.9778 25.1854 25.9388 25.0152 25.9851 24.8587C26.0322 24.7022 26.1573 24.5824 26.316 24.5448C26.335 24.5403 28.2652 24.0653 28.2652 22.6972C28.2652 21.3327 27.5943 21.0554 27.5662 21.0444C27.3931 20.9776 27.2725 20.8074 27.2707 20.6198C27.2689 20.4322 27.374 20.2602 27.5472 20.1888C27.5626 20.1824 29.093 19.5345 29.093 18.1709C29.093 16.8092 28.1292 16.4294 28.1202 16.4258C27.9343 16.3553 27.8155 16.1723 27.8264 15.9728C27.8373 15.7733 27.9742 15.604 28.1664 15.5536C28.1972 15.5445 29.093 15.2599 29.093 13.6749C29.093 12.1063 27.5807 11.9059 27.5164 11.8986L20.375 11.9013C19.9062 11.9013 19.5119 11.6899 19.2625 11.3056C18.8709 10.7007 18.899 9.77364 19.3387 8.75967C20.2263 6.71343 20.6587 5.18607 20.6587 4.09065C20.6587 2.77286 20.0767 0.915135 18.7802 0.915135C18.6424 0.915135 18.6007 0.932523 18.5998 0.933438C18.5953 0.958147 18.5572 1.15582 18.5264 1.31413L18.4566 1.65822C18.2671 2.51937 17.2263 5.22268 15.3632 7.64504C13.5137 10.0528 12.482 11.582 10.7277 14.3127C9.39496 16.3837 7.7558 17.5075 5.84557 17.6603L5.84466 27.5382Z" fill="#1B998B"/>
<path d="M5.39073 30.9995H0.453307C0.203081 30.9995 0 30.7945 0 30.542V14.8208C0 14.5683 0.203081 14.3633 0.453307 14.3633H5.39073C5.64095 14.3633 5.84403 14.5683 5.84403 14.8208V30.542C5.84403 30.7945 5.64186 30.9995 5.39073 30.9995ZM0.906614 30.0844H4.93742V15.2784H0.906614V30.0844Z" fill="#1B998B"/>
</svg>
