<svg width="30" height="32" viewBox="0 0 30 32" fill="none" xmlns="http://www.w3.org/2000/svg">
<path d="M20.5739 22.7431C20.2897 23.0273 20.0451 23.3397 19.8335 23.6701L10.4605 17.9806C10.7084 17.3601 10.8489 16.6853 10.8489 15.9775C10.8489 15.2696 10.7084 14.5949 10.4611 13.9743L19.8363 8.3283C20.7991 9.84056 22.4871 10.8484 24.4094 10.8484C27.4003 10.8484 29.8336 8.41509 29.8336 5.42419C29.8336 2.43329 27.4003 0 24.4094 0C21.4185 0 18.9852 2.43329 18.9852 5.42419C18.9852 6.10547 19.117 6.75528 19.347 7.35628L9.95935 13.0099C8.98951 11.5324 7.31994 10.5533 5.42419 10.5533C2.43329 10.5533 0 12.9866 0 15.9775C0 18.9684 2.43329 21.4017 5.42419 21.4017C7.31994 21.4017 8.98897 20.4226 9.95881 18.9451L19.3448 24.6421C19.1116 25.2529 18.9847 25.9054 18.9847 26.5785C18.9847 28.0273 19.5488 29.3899 20.5734 30.414C21.6306 31.4711 23.0197 32 24.4088 32C25.798 32 27.1871 31.4711 28.2443 30.414C29.2689 29.3893 29.833 28.0273 29.833 26.5785C29.833 25.1297 29.2689 23.7672 28.2443 22.7431C26.1294 20.6276 22.6888 20.6276 20.5739 22.7431ZM24.4094 1.08484C26.802 1.08484 28.7487 3.03158 28.7487 5.42419C28.7487 7.8168 26.802 9.76354 24.4094 9.76354C22.0168 9.76354 20.07 7.8168 20.07 5.42419C20.07 3.03158 22.0162 1.08484 24.4094 1.08484ZM5.42473 20.3168C3.03212 20.3168 1.08538 18.3701 1.08538 15.9775C1.08538 13.5849 3.03212 11.6381 5.42473 11.6381C7.81734 11.6381 9.76408 13.5849 9.76408 15.9775C9.76408 18.3701 7.81734 20.3168 5.42473 20.3168ZM27.4773 29.647C25.7855 31.3388 23.0327 31.3388 21.3409 29.647C20.5213 28.8274 20.07 27.7371 20.07 26.5785C20.07 25.4199 20.5213 24.3297 21.3409 23.5101C22.1871 22.6639 23.298 22.2413 24.4094 22.2413C25.5208 22.2413 26.6317 22.6639 27.4779 23.5101C28.2974 24.3297 28.7487 25.4199 28.7487 26.5785C28.7487 27.7371 28.2974 28.8274 27.4773 29.647Z" fill="#1B998B"/>
</svg>
