<svg width="142" height="64" viewBox="0 0 142 64" fill="none" xmlns="http://www.w3.org/2000/svg">
<path d="M138.359 0H47.235C45.6818 0 44.4229 1.25896 44.4229 2.81211V8.11567H17.6197C16.0666 8.11567 14.8076 9.37462 14.8076 10.9278C14.8076 12.4809 16.0666 13.7399 17.6197 13.7399H44.4229V50.2601H28.403C26.8499 50.2601 25.5909 51.5191 25.5909 53.0722C25.5909 54.6254 26.8499 55.8843 28.403 55.8843H44.4229V61.1879C44.4229 62.741 45.6818 64 47.235 64H138.359C139.912 64 141.171 62.741 141.171 61.1879V2.81211C141.171 1.25896 139.912 0 138.359 0ZM131.422 5.62422L92.8009 37.3284L54.3564 5.62422H131.422ZM135.547 58.3761H50.0474V9.36056L91.0079 43.1395C91.5273 43.5677 92.162 43.7822 92.797 43.7822C93.4298 43.7822 94.0629 43.5694 94.5812 43.1437L135.547 9.51469V58.3761Z" fill="#1B998B"/>
<path d="M32.9967 28.9023H2.81211C1.25896 28.9023 0 30.1613 0 31.7145C0 33.2676 1.25896 34.5266 2.81211 34.5266H32.9967C34.5499 34.5266 35.8088 33.2676 35.8088 31.7145C35.8091 30.1613 34.5499 28.9023 32.9967 28.9023Z" fill="#1B998B"/>
<path d="M19.1227 50.2617H17.6197C16.0666 50.2617 14.8076 51.5207 14.8076 53.0738C14.8076 54.627 16.0666 55.8859 17.6197 55.8859H19.1227C20.6759 55.8859 21.9348 54.627 21.9348 53.0738C21.9348 51.5207 20.6759 50.2617 19.1227 50.2617Z" fill="#1B998B"/>
</svg>
