<svg width="14" height="14" viewBox="0 0 14 14" fill="none" xmlns="http://www.w3.org/2000/svg">
<path d="M11.9497 2.05023C10.6276 0.728137 8.86977 0 7 0C5.13021 0 3.37233 0.728137 2.05023 2.05023C0.728109 3.37236 0 5.13023 0 7C0 8.86977 0.728109 10.6276 2.05023 11.9497C3.37236 13.2719 5.13021 14 7 14C8.86977 14 10.6276 13.2719 11.9497 11.9497C13.2719 10.6276 14 8.86977 14 7C14 5.13023 13.2719 3.37239 11.9497 2.05023ZM7 13.1797C3.5925 13.1797 0.820312 10.4075 0.820312 7C0.820312 3.5925 3.5925 0.820312 7 0.820312C10.4075 0.820312 13.1797 3.5925 13.1797 7C13.1797 10.4075 10.4075 13.1797 7 13.1797Z" fill="#1B998B"/>
<path d="M10.3442 4.75486C10.1841 4.59473 9.92438 4.59473 9.76422 4.75488L6.1423 8.37681L4.2357 6.47021C4.07555 6.31006 3.81584 6.31006 3.65566 6.47021C3.49548 6.63036 3.49548 6.89007 3.65566 7.05025L5.85226 9.24686C5.93235 9.32695 6.03733 9.36698 6.14227 9.36698C6.24722 9.36698 6.35222 9.32692 6.43228 9.24686L10.3442 5.3349C10.5044 5.17475 10.5044 4.91504 10.3442 4.75486Z" fill="#1B998B"/>
</svg>
