<svg width="60" height="60" viewBox="0 0 60 60" fill="none" xmlns="http://www.w3.org/2000/svg">
<path d="M30 18.8947C35.2093 18.8947 39.4473 14.6567 39.4473 9.44727C39.4473 4.23802 35.2093 0 30 0C24.7908 0 20.5527 4.23802 20.5527 9.44727C20.5527 14.6567 24.7908 18.8947 30 18.8947ZM30 1.91488C34.1534 1.91488 37.5324 5.29389 37.5324 9.44727C37.5324 13.6007 34.1534 16.9798 30 16.9798C25.8466 16.9798 22.4676 13.6007 22.4676 9.44727C22.4676 5.29389 25.8466 1.91488 30 1.91488Z" fill="#1B998B"/>
<path d="M30.0007 22.7274C37.6363 22.7274 43.9056 28.6878 44.3998 36.2004H22.2723C21.7435 36.2004 21.3148 36.6289 21.3148 37.1578C21.3148 37.6867 21.7435 38.1153 22.2723 38.1153H45.3887C45.9175 38.1153 46.3462 37.6867 46.3462 37.1578C46.3462 28.145 39.0137 20.8125 30.0007 20.8125C20.9878 20.8125 13.6553 28.145 13.6553 37.1578C13.6553 37.6867 14.084 38.1153 14.6127 38.1153H18.4425C18.9712 38.1153 19.3999 37.6867 19.3999 37.1578C19.3999 36.6289 18.9712 36.2004 18.4425 36.2004H15.6016C16.0959 28.6878 22.3653 22.7274 30.0007 22.7274Z" fill="#1B998B"/>
<path d="M17.9245 48.2188L12.6722 47.3373L10.2108 42.6146C10.0459 42.2981 9.71871 42.0996 9.36178 42.0996C9.00484 42.0996 8.67765 42.2981 8.51272 42.6146L6.05132 47.3373L0.799051 48.2188C0.447096 48.2779 0.157182 48.5277 0.0468847 48.8672C-0.0634126 49.2065 0.0242891 49.5791 0.274245 49.8337L4.00533 53.6341L3.22061 58.9017C3.16802 59.2548 3.3161 59.6076 3.60487 59.8174C3.89338 60.0273 4.27495 60.0589 4.59435 59.8999L9.36165 57.5258L14.1289 59.8999C14.264 59.967 14.4102 60.0002 14.5556 60.0002C14.7543 60.0002 14.9518 59.9384 15.1184 59.8173C15.4072 59.6075 15.5553 59.2547 15.5027 58.9016L14.718 53.634L18.4491 49.8336C18.699 49.579 18.7867 49.2064 18.6764 48.8671C18.5664 48.5277 18.2765 48.2779 17.9245 48.2188ZM13.0177 52.6329C12.8074 52.8471 12.7096 53.1476 12.7539 53.4447L13.3382 57.3667L9.78867 55.599C9.51995 55.4651 9.20386 55.4651 8.93501 55.599L5.38533 57.3667L5.96962 53.4447C6.01392 53.1476 5.91626 52.847 5.70588 52.6329L2.92776 49.8032L6.83847 49.1468C7.13464 49.097 7.39034 48.9112 7.5291 48.6449L9.36178 45.1284L11.1944 48.6449C11.3332 48.9112 11.5889 49.097 11.8851 49.1468L15.7958 49.8032L13.0177 52.6329Z" fill="#1B998B"/>
<path d="M38.5622 48.2188L33.3099 47.3373L30.8485 42.6146C30.6836 42.2981 30.3564 42.0996 29.9995 42.0996C29.6425 42.0996 29.3153 42.2981 29.1504 42.6146L26.689 47.3373L21.4367 48.2188C21.0848 48.2779 20.7949 48.5277 20.6846 48.8672C20.5743 49.2065 20.662 49.5791 20.9119 49.8337L24.643 53.6341L23.8584 58.9017C23.8058 59.2548 23.9539 59.6076 24.2427 59.8174C24.5312 60.0273 24.9128 60.0589 25.2322 59.8999L29.9995 57.5258L34.7668 59.8999C34.9018 59.967 35.048 60.0002 35.1934 60.0002C35.3922 60.0002 35.5897 59.9384 35.7562 59.8173C36.045 59.6075 36.1931 59.2547 36.1405 58.9016L35.3559 53.634L39.087 49.8336C39.337 49.579 39.4247 49.2064 39.3144 48.8671C39.2041 48.5277 38.9142 48.2779 38.5622 48.2188ZM33.6554 52.6329C33.4451 52.8471 33.3473 53.1476 33.3916 53.4447L33.9758 57.3667L30.4262 55.599C30.2918 55.5321 30.1456 55.4987 29.9995 55.4987C29.8533 55.4987 29.707 55.5321 29.5727 55.599L26.0231 57.3667L26.6073 53.4447C26.6516 53.1476 26.554 52.847 26.3436 52.6329L23.5655 49.8032L27.4762 49.1468C27.7723 49.097 28.028 48.9112 28.1668 48.6449L29.9995 45.1286L31.8321 48.6451C31.9709 48.9114 32.2266 49.0971 32.5228 49.1469L36.4335 49.8033L33.6554 52.6329Z" fill="#1B998B"/>
<path d="M59.953 48.8672C59.8427 48.5277 59.5529 48.2779 59.2009 48.2188L53.9486 47.3373L51.4872 42.6146C51.3223 42.2981 50.9951 42.0996 50.6381 42.0996C50.2812 42.0996 49.954 42.2981 49.7891 42.6146L47.3277 47.3373L42.0754 48.2188C41.7235 48.2779 41.4336 48.5277 41.3233 48.8672C41.213 49.2065 41.3007 49.5791 41.5506 49.8337L45.2817 53.6341L44.497 58.9017C44.4444 59.2548 44.5925 59.6076 44.8812 59.8174C45.1697 60.0273 45.5513 60.0589 45.8707 59.8999L50.638 57.5258L55.4053 59.8999C55.5404 59.967 55.6865 60.0002 55.8319 60.0002C56.0307 60.0002 56.2282 59.9384 56.3948 59.8173C56.6836 59.6075 56.8316 59.2547 56.779 58.9016L55.9943 53.634L59.7254 49.8336C59.9756 49.5791 60.0633 49.2065 59.953 48.8672ZM54.2942 52.6329C54.0839 52.8471 53.9861 53.1476 54.0304 53.4447L54.6147 57.3667L51.065 55.599C50.9306 55.5321 50.7844 55.4987 50.6383 55.4987C50.492 55.4987 50.3458 55.5321 50.2115 55.599L46.6619 57.3667L47.2462 53.4447C47.2905 53.1476 47.1929 52.847 46.9825 52.6329L44.2044 49.8032L48.1151 49.1468C48.4113 49.097 48.667 48.9112 48.8057 48.6449L50.6384 45.1284L52.4711 48.6449C52.6098 48.9112 52.8655 49.097 53.1617 49.1468L57.0724 49.8032L54.2942 52.6329Z" fill="#1B998B"/>
<path d="M29.9999 13.791C31.2549 13.791 32.4489 13.2456 33.2757 12.2947C33.6225 11.8956 33.5804 11.2909 33.1813 10.9439C32.7821 10.5969 32.1774 10.6392 31.8306 11.0383C31.3678 11.5707 30.7004 11.8761 29.9999 11.8761C29.2995 11.8761 28.6322 11.5707 28.1693 11.0383C27.8223 10.6392 27.2176 10.5971 26.8185 10.9439C26.4195 11.2909 26.3772 11.8956 26.7242 12.2947C27.5509 13.2455 28.7449 13.791 29.9999 13.791Z" fill="#1B998B"/>
</svg>
