<svg width="23" height="24" viewBox="0 0 23 24" fill="none" xmlns="http://www.w3.org/2000/svg">
<path d="M15.9608 15.6669C17.4749 14.0059 18.4195 11.7818 18.4195 9.33256C18.4195 4.19471 14.2939 0 9.20975 0C4.12563 0 0 4.19471 0 9.33256C0 14.4704 4.12563 18.6651 9.20975 18.6651C11.2795 18.6651 13.1826 17.9754 14.7245 16.807L21.5727 23.7466C21.7394 23.9155 21.9478 24 22.1562 24C22.3645 24 22.5868 23.9155 22.7396 23.7466C23.0591 23.4229 23.0591 22.888 22.7396 22.5502L15.9608 15.6669ZM1.66692 9.33256C1.66692 5.12374 5.04244 1.68915 9.20975 1.68915C13.3632 1.68915 16.7526 5.10968 16.7526 9.33256C16.7526 13.5554 13.3771 16.976 9.20975 16.976C5.04244 16.976 1.66692 13.5414 1.66692 9.33256Z" fill="#CCCCCC"/>
</svg>
