<svg width="29" height="33" viewBox="0 0 29 33" fill="none" xmlns="http://www.w3.org/2000/svg">
<path d="M23.274 11.2011C23.0047 10.933 22.5669 10.933 22.2976 11.2011L13.1198 20.3393L8.08347 15.3261C7.81418 15.058 7.3764 15.058 7.10712 15.3261C6.83783 15.5942 6.83783 16.0301 7.10712 16.2982L12.6309 21.7982C12.7663 21.9316 12.943 21.999 13.1198 21.999C13.2965 21.999 13.4733 21.9316 13.6073 21.7982L23.2739 12.1732C23.5433 11.9051 23.5433 11.4692 23.274 11.2011Z" fill="#1B998B"/>
<path d="M28.507 4.15386L14.6975 0.0288589C14.5677 -0.00961963 14.431 -0.00961963 14.3011 0.0288589L0.491641 4.15386C0.200217 4.24049 0 4.50861 0 4.81251V19.9375C0 26.0178 9.31036 31.4257 14.2956 32.9698C14.3619 32.9904 14.431 33 14.5 33C14.569 33 14.6381 32.9904 14.7044 32.9698C19.6896 31.4242 29 26.0177 29 19.9375V4.81251C29 4.50861 28.7998 4.24184 28.507 4.15386ZM27.6191 19.9375C27.6191 24.7651 19.9369 29.8416 14.5 31.592C9.06321 29.8416 1.38093 24.7651 1.38093 19.9375V5.32401L14.5 1.40526L27.6191 5.32401V19.9375Z" fill="#1B998B"/>
</svg>
