<svg width="81" height="100" viewBox="0 0 81 100" fill="none" xmlns="http://www.w3.org/2000/svg">
<path d="M70.8945 35.6517H53.2272V7.12362C53.227 3.1955 50.0383 0 46.1187 0H7.10832C3.18872 0 0 3.1955 0 7.12362V92.8764C0 96.8043 3.18872 100 7.10851 100H46.1187C50.0383 100 53.2272 96.8045 53.2272 92.8764V71.493H70.8945C73.9343 71.493 76.4074 69.0147 76.4074 65.9684V41.1763C76.4074 38.13 73.9343 35.6517 70.8945 35.6517ZM70.8945 39.5581C70.9567 39.5581 71.0177 39.5622 71.0779 39.5691C71.0972 39.5712 71.1161 39.5749 71.1352 39.5779C71.1761 39.5839 71.2165 39.5911 71.2564 39.6003C71.2777 39.6052 71.2987 39.6109 71.3198 39.6167C71.3572 39.6269 71.3938 39.6386 71.4301 39.6513C71.4501 39.6583 71.4702 39.6656 71.4899 39.6734C71.5283 39.6886 71.5655 39.7058 71.6022 39.7239C71.6178 39.7316 71.6339 39.7386 71.6493 39.7468C71.7006 39.7741 71.7507 39.8036 71.7984 39.8363C71.8031 39.8394 71.8072 39.8431 71.8117 39.8462C71.8546 39.8761 71.8959 39.9077 71.9356 39.9415C71.9505 39.954 71.9643 39.9677 71.9787 39.9808C72.0072 40.0068 72.035 40.0333 72.0615 40.0613C72.0766 40.0771 72.0912 40.0933 72.1056 40.1097C72.13 40.1374 72.1533 40.1661 72.1758 40.1954C72.1839 40.206 72.1917 40.2167 72.1997 40.2275L49.7726 53.1915C49.0556 53.6056 48.1649 53.606 47.4479 53.1915L35.1029 46.0552V39.5581H70.8945ZM40.3062 53.5724L35.1029 56.5802V50.5645L40.3062 53.5724ZM3.89796 7.12362C3.89796 5.3496 5.33786 3.90624 7.10832 3.90624H46.1185C47.8888 3.90624 49.329 5.3496 49.329 7.12362V13.0732H3.89796V7.12362ZM49.329 92.8762C49.329 94.6502 47.8888 96.0936 46.1185 96.0936H7.10832C5.33806 96.0936 3.89776 94.6502 3.89776 92.8762V86.9266H49.329V92.8762ZM49.329 83.0207H3.89796V16.9795H49.329V35.6519H35.1029V32.357C35.1029 31.2785 34.2301 30.4038 33.1539 30.4038C32.0777 30.4038 31.2049 31.2785 31.2049 32.357V74.9418C31.2049 76.0204 32.0777 76.895 33.1539 76.895C34.2301 76.895 35.1029 76.0204 35.1029 74.9418V71.4932H49.329V83.0207ZM72.1765 66.9495C72.1533 66.979 72.1301 67.0075 72.1058 67.0352C72.0914 67.0516 72.0769 67.0678 72.0617 67.0837C72.035 67.1116 72.0072 67.1383 71.9787 67.1643C71.9645 67.1772 71.9506 67.1907 71.936 67.2032C71.8963 67.237 71.8549 67.2688 71.8121 67.2985C71.8076 67.3016 71.8033 67.3053 71.7988 67.3085C71.7509 67.3411 71.701 67.3706 71.6497 67.3979C71.6343 67.4061 71.6181 67.413 71.6026 67.4208C71.5657 67.4389 71.5285 67.4561 71.4903 67.4714C71.4706 67.4792 71.4505 67.4862 71.4305 67.4934C71.3942 67.5063 71.3574 67.5178 71.32 67.528C71.2991 67.5337 71.2781 67.5393 71.257 67.5442C71.2171 67.5534 71.1765 67.5606 71.1356 67.5667C71.1165 67.5696 71.0978 67.5731 71.0785 67.5755C71.0183 67.5823 70.9571 67.5866 70.8951 67.5866H35.1036V61.0893L44.2075 55.8269L45.5013 56.5747C46.4603 57.1292 47.5356 57.4063 48.611 57.4063C48.8512 57.4063 49.0911 57.3903 49.3298 57.3628C50.1607 57.2667 50.9761 57.0056 51.7212 56.5749L53.0148 55.827L72.2005 66.9174C72.1927 66.9282 72.1847 66.9389 72.1765 66.9495ZM72.5094 62.587L56.9147 53.5724L72.5094 44.5577V62.587Z" fill="#1B998B"/>
<path d="M35.0029 6.53516H18.2244C17.1481 6.53516 16.2754 7.40976 16.2754 8.48828C16.2754 9.56679 17.1481 10.4414 18.2244 10.4414H35.0029C36.0792 10.4414 36.9519 9.56679 36.9519 8.48828C36.9519 7.40976 36.0794 6.53516 35.0029 6.53516Z" fill="#1B998B"/>
<path d="M24.1804 93.4648H29.0462C30.1225 93.4648 30.9952 92.5902 30.9952 91.5117C30.9952 90.4332 30.1225 89.5586 29.0462 89.5586H24.1804C23.1042 89.5586 22.2314 90.4332 22.2314 91.5117C22.2314 92.5902 23.1042 93.4648 24.1804 93.4648Z" fill="#1B998B"/>
<path d="M78.2314 28.0586H58.0183C56.9421 28.0586 56.0693 28.9332 56.0693 30.0117C56.0693 31.0902 56.9421 31.9648 58.0183 31.9648H78.2314C79.3078 31.9648 80.1804 31.0902 80.1804 30.0117C80.1804 28.9332 79.3076 28.0586 78.2314 28.0586Z" fill="#1B998B"/>
<path d="M66.5942 75H62.3064C61.2302 75 60.3574 75.8746 60.3574 76.9531C60.3574 78.0316 61.2302 78.9062 62.3064 78.9062H66.5942C67.6704 78.9062 68.5431 78.0316 68.5431 76.9531C68.5431 75.8746 67.6704 75 66.5942 75Z" fill="#1B998B"/>
<path d="M32.0722 26.167C32.1774 26.2373 32.2905 26.2978 32.4094 26.3467C32.5263 26.3955 32.6489 26.4326 32.7738 26.458C32.8985 26.4834 33.0272 26.4971 33.1539 26.4971C33.2804 26.4971 33.4092 26.4834 33.5337 26.458C33.6586 26.4326 33.7814 26.3955 33.8982 26.3467C34.0171 26.2978 34.1301 26.2373 34.2354 26.167C34.3425 26.0969 34.4419 26.0148 34.5316 25.925C34.6213 25.8352 34.7031 25.7353 34.7733 25.6279C34.8434 25.5225 34.9039 25.4092 34.9526 25.2902C35.0013 25.1728 35.0403 25.05 35.0637 24.925C35.089 24.7998 35.1026 24.6709 35.1026 24.5441C35.1026 24.4172 35.089 24.2881 35.0637 24.1613C35.0403 24.0361 35.0013 23.9131 34.9526 23.7961C34.9039 23.6791 34.8434 23.5656 34.7733 23.4602C34.7031 23.3525 34.6213 23.2529 34.5316 23.1631C34.4419 23.0732 34.3425 22.9912 34.2354 22.9189C34.1301 22.8488 34.0171 22.7881 33.8982 22.7393C33.7812 22.6904 33.6586 22.6535 33.5337 22.6279C33.2844 22.5771 33.0252 22.5771 32.7738 22.6279C32.6489 22.6535 32.5261 22.6904 32.4094 22.7393C32.2905 22.7881 32.1774 22.8488 32.0722 22.9189C31.965 22.9912 31.8656 23.0732 31.7759 23.1631C31.6863 23.2529 31.6044 23.3525 31.5343 23.4602C31.4643 23.5656 31.4037 23.6789 31.355 23.7961C31.3062 23.9133 31.2673 24.0361 31.2439 24.1613C31.2185 24.2881 31.2051 24.4172 31.2051 24.5441C31.2051 25.0578 31.4134 25.5617 31.7761 25.925C31.8658 26.0148 31.9652 26.0969 32.0722 26.167Z" fill="#1B998B"/>
</svg>
