<svg width="18" height="23" viewBox="0 0 18 23" fill="none" xmlns="http://www.w3.org/2000/svg">
<path d="M10.8349 14.4701C10.6229 14.4701 10.4511 14.6398 10.4511 14.8492V18.6691H0.767662V9.10458H3.72265C3.93468 9.10458 4.10648 8.93484 4.10648 8.72547C4.10648 8.51611 3.93468 8.34637 3.72265 8.34637H0.767662V6.74058C0.767662 6.07397 1.31675 5.53165 1.99173 5.53165H2.54439C2.75642 5.53165 2.92822 5.36191 2.92822 5.15254C2.92822 4.94318 2.75642 4.77344 2.54439 4.77344H1.99173C0.893508 4.77344 0 5.65589 0 6.74058V21.0331C0 22.1178 0.893508 23.0002 1.99173 23.0002H9.22705C10.3253 23.0002 11.2188 22.1178 11.2188 21.0331V14.8492C11.2187 14.6398 11.0469 14.4701 10.8349 14.4701ZM9.227 22.2421H1.99173C1.3168 22.2421 0.767662 21.6997 0.767662 21.0331V19.4273H10.4511V21.0331C10.4511 21.6997 9.90198 22.2421 9.227 22.2421Z" fill="#1B998B"/>
<path d="M7.36595 5.32312C6.80781 5.23294 6.78426 5.17906 6.78426 5.06589C6.78426 4.86577 7.12434 4.8129 7.30413 4.8129C7.59302 4.8129 7.77936 4.90904 7.81421 5.00402C7.88642 5.20085 8.10654 5.3027 8.30582 5.23128C8.50516 5.15995 8.60818 4.94255 8.53597 4.74572C8.37957 4.31945 7.90756 4.05469 7.30413 4.05469C6.54603 4.05469 6.0166 4.47049 6.0166 5.06589C6.0166 5.87343 6.7837 5.99737 7.242 6.07142C7.8005 6.16165 7.82404 6.21563 7.82404 6.32911C7.82404 6.52923 7.48391 6.5821 7.30413 6.5821C7.01523 6.5821 6.82884 6.48591 6.79404 6.39088C6.72193 6.19395 6.50171 6.09225 6.30253 6.16337C6.10319 6.23459 6.00007 6.45194 6.07218 6.64882C6.22843 7.07534 6.70044 7.34031 7.30413 7.34031C8.06222 7.34031 8.5917 6.92451 8.5917 6.32911C8.59175 5.52116 7.8244 5.39717 7.36595 5.32312Z" fill="#1B998B"/>
<path d="M14.4284 5.32312C13.8703 5.23294 13.8468 5.17906 13.8468 5.06589C13.8468 4.86577 14.1868 4.8129 14.3666 4.8129C14.6555 4.8129 14.8419 4.90909 14.8768 5.00407C14.949 5.2009 15.169 5.3028 15.3684 5.23128C15.5677 5.1599 15.6707 4.9425 15.5984 4.74567C15.442 4.31945 14.97 4.05469 14.3666 4.05469C13.6085 4.05469 13.0791 4.47049 13.0791 5.06589C13.0791 5.87343 13.8462 5.99737 14.3045 6.07142C14.863 6.16165 14.8865 6.21563 14.8865 6.32911C14.8865 6.52923 14.5464 6.5821 14.3666 6.5821C14.0777 6.5821 13.8913 6.48586 13.8564 6.39083C13.7843 6.194 13.5644 6.09199 13.3649 6.16337C13.1656 6.23464 13.0625 6.45199 13.1347 6.64887C13.291 7.07539 13.763 7.34031 14.3666 7.34031C15.1247 7.34031 15.6542 6.92451 15.6542 6.32911C15.6542 5.52116 14.8869 5.39717 14.4284 5.32312Z" fill="#1B998B"/>
<path d="M12.0602 4.07815C11.9092 4.0232 11.7398 4.06698 11.6354 4.18768L10.8353 5.11356L10.0351 4.18768C9.93077 4.06693 9.76117 4.02315 9.6104 4.07815C9.45958 4.13304 9.35938 4.27503 9.35938 4.43385V6.96121C9.35938 7.17058 9.53118 7.34031 9.74321 7.34031C9.95523 7.34031 10.127 7.17058 10.127 6.96121V5.46193L10.5434 5.94364C10.6163 6.02801 10.7229 6.07663 10.8353 6.07663C10.9476 6.07663 11.0543 6.02806 11.1272 5.94364L11.5435 5.46193V6.96121C11.5435 7.17058 11.7153 7.34031 11.9274 7.34031C12.1394 7.34031 12.3112 7.17058 12.3112 6.96121V4.43385C12.3112 4.27503 12.211 4.13309 12.0602 4.07815Z" fill="#1B998B"/>
<path d="M15.8683 1.64016C14.5199 0.582456 12.7323 0 10.8347 0C8.93711 0 7.14943 0.582507 5.80111 1.64016C4.42679 2.71823 3.66992 4.15938 3.66992 5.69819C3.66992 8.39928 6.0224 10.7028 9.30707 11.2667C9.36685 12.1088 9.05845 12.9448 8.45553 13.546C8.34647 13.6547 8.31433 13.8174 8.37395 13.9587C8.43358 14.0999 8.57329 14.1918 8.7282 14.1918C10.4835 14.1918 11.9908 12.9542 12.3461 11.2695C15.6395 10.7104 17.9996 8.40383 17.9996 5.69819C17.9996 4.15943 17.2427 2.71823 15.8683 1.64016ZM11.9516 10.5627C11.7517 10.59 11.6072 10.7654 11.6211 10.9642L11.6215 10.9695C11.4449 12.0855 10.6381 12.9782 9.59551 13.3022C9.99592 12.6017 10.1605 11.7795 10.0469 10.9663L10.047 10.9641C10.0609 10.7653 9.91649 10.5899 9.71665 10.5626C6.65777 10.145 4.43764 8.09924 4.43764 5.69824C4.43764 2.9743 7.30736 0.758259 10.8348 0.758259C14.3622 0.758259 17.232 2.9743 17.232 5.69824C17.232 8.09964 15.0113 10.1455 11.9516 10.5627Z" fill="#1B998B"/>
</svg>
