<svg width="27" height="32" viewBox="0 0 27 32" fill="none" xmlns="http://www.w3.org/2000/svg">
<path d="M22.1662 9.5H13.2C12.8561 9.5 12.5774 9.77981 12.5774 10.125C12.5774 10.4702 12.8561 10.75 13.2 10.75H22.1662C22.5101 10.75 22.7889 10.4702 22.7889 10.125C22.7889 9.77981 22.5101 9.5 22.1662 9.5Z" fill="#1B998B"/>
<path d="M19.9875 12.6831C19.8717 12.5669 19.711 12.5 19.5473 12.5C19.3835 12.5 19.2229 12.5669 19.1071 12.6831C18.9912 12.7994 18.9246 12.9606 18.9246 13.125C18.9246 13.2894 18.9912 13.4506 19.1071 13.5669C19.2229 13.6831 19.3835 13.75 19.5473 13.75C19.711 13.75 19.8717 13.6831 19.9875 13.5669C20.1033 13.4506 20.1699 13.2894 20.1699 13.125C20.1699 12.9606 20.1033 12.7994 19.9875 12.6831Z" fill="#1B998B"/>
<path d="M13.6396 2.87062C13.5238 2.75437 13.3631 2.6875 13.1994 2.6875C13.0356 2.6875 12.875 2.75437 12.7592 2.87062C12.6434 2.98687 12.5768 3.14812 12.5768 3.3125C12.5768 3.47687 12.6434 3.63812 12.7592 3.75437C12.875 3.87062 13.0356 3.9375 13.1994 3.9375C13.3631 3.9375 13.5238 3.87062 13.6396 3.75437C13.7554 3.63812 13.822 3.47687 13.822 3.3125C13.822 3.14812 13.7554 2.98687 13.6396 2.87062Z" fill="#1B998B"/>
<path d="M16.9282 12.5H13.2C12.8561 12.5 12.5774 12.7798 12.5774 13.125C12.5774 13.4702 12.8561 13.75 13.2 13.75H16.9282C17.2721 13.75 17.5509 13.4702 17.5509 13.125C17.5509 12.7798 17.2721 12.5 16.9282 12.5Z" fill="#1B998B"/>
<path d="M22.1662 16.25H13.2C12.8561 16.25 12.5774 16.5298 12.5774 16.875C12.5774 17.2202 12.8561 17.5 13.2 17.5H22.1662C22.5101 17.5 22.7889 17.2202 22.7889 16.875C22.7889 16.5298 22.5101 16.25 22.1662 16.25Z" fill="#1B998B"/>
<path d="M19.9875 19.4331C19.8717 19.3169 19.711 19.25 19.5473 19.25C19.3835 19.25 19.2229 19.3169 19.1071 19.4331C18.9912 19.5494 18.9246 19.7106 18.9246 19.875C18.9246 20.0394 18.9912 20.2006 19.1071 20.3169C19.2229 20.4331 19.3835 20.5 19.5473 20.5C19.711 20.5 19.8717 20.4331 19.9875 20.3169C20.1033 20.2006 20.1699 20.0394 20.1699 19.875C20.1699 19.7106 20.1033 19.5494 19.9875 19.4331Z" fill="#1B998B"/>
<path d="M16.9282 19.25H13.2C12.8561 19.25 12.5774 19.5298 12.5774 19.875C12.5774 20.2202 12.8561 20.5 13.2 20.5H16.9282C17.2721 20.5 17.5509 20.2202 17.5509 19.875C17.5509 19.5298 17.2721 19.25 16.9282 19.25Z" fill="#1B998B"/>
<path d="M22.1662 23H13.2C12.8561 23 12.5774 23.2798 12.5774 23.625C12.5774 23.9702 12.8561 24.25 13.2 24.25H22.1662C22.5101 24.25 22.7889 23.9702 22.7889 23.625C22.7889 23.2798 22.5101 23 22.1662 23Z" fill="#1B998B"/>
<path d="M19.9875 26.1831C19.8717 26.0669 19.711 26 19.5473 26C19.3835 26 19.2229 26.0669 19.1071 26.1831C18.9912 26.2994 18.9246 26.4606 18.9246 26.625C18.9246 26.7894 18.9912 26.9506 19.1071 27.0669C19.2229 27.1831 19.3835 27.25 19.5473 27.25C19.711 27.25 19.8717 27.1831 19.9875 27.0669C20.1033 26.9506 20.1699 26.7894 20.1699 26.625C20.1699 26.4606 20.1033 26.2994 19.9875 26.1831Z" fill="#1B998B"/>
<path d="M16.9282 26H13.2C12.8561 26 12.5774 26.2798 12.5774 26.625C12.5774 26.9702 12.8561 27.25 13.2 27.25H16.9282C17.2721 27.25 17.5509 26.9702 17.5509 26.625C17.5509 26.2798 17.2721 26 16.9282 26Z" fill="#1B998B"/>
<path d="M23.3642 2.43756H18.6085C17.921 1.78 16.9917 1.375 15.9694 1.375H15.424C15.007 0.546374 14.1503 0 13.2 0C12.2496 0 11.393 0.546374 10.976 1.375H10.4292C9.40689 1.375 8.47766 1.78 7.7902 2.43756H3.03588C1.36191 2.43756 0 3.80462 0 5.48493V28.9526C0 30.6329 1.36191 32 3.03588 32H23.3641C25.0381 32 26.4 30.6329 26.4 28.9526V5.48493C26.4001 3.80462 25.0382 2.43756 23.3642 2.43756ZM10.4293 2.62499H11.3997C11.6798 2.62499 11.9254 2.43731 11.9999 2.16637C12.1484 1.62681 12.6419 1.25 13.2 1.25C13.7582 1.25 14.2517 1.62681 14.4001 2.16637C14.4746 2.43731 14.7203 2.62499 15.0003 2.62499H15.9694C17.3209 2.62499 18.4333 3.67187 18.5443 5.00005H7.85439C7.96541 3.67187 9.07789 2.62499 10.4293 2.62499ZM25.1548 28.9527C25.1548 29.9438 24.3515 30.7501 23.3642 30.7501H3.03588C2.04856 30.7501 1.24529 29.9438 1.24529 28.9527V5.48493C1.24529 4.49387 2.04856 3.68756 3.03588 3.68756H6.91787C6.7139 4.15705 6.60002 4.67468 6.60002 5.2188V5.62505C6.60002 5.97024 6.87877 6.25005 7.22266 6.25005H19.1761C19.52 6.25005 19.7987 5.97024 19.7987 5.62505V5.2188C19.7987 4.67474 19.6849 4.15705 19.4809 3.68756H23.3642C24.3515 3.68756 25.1548 4.49387 25.1548 5.48493V28.9527Z" fill="#1B998B"/>
<path d="M9.24059 9.35102C8.99745 9.10696 8.60319 9.10696 8.36005 9.35096L5.6975 12.0236L4.87729 11.2003C4.63415 10.9563 4.23989 10.9563 3.99669 11.2003C3.75355 11.4443 3.75355 11.8401 3.99669 12.0842L5.25723 13.3495C5.37883 13.4716 5.53816 13.5326 5.6975 13.5326C5.85683 13.5326 6.01623 13.4716 6.13777 13.3495L9.24059 10.235C9.48373 9.9909 9.48373 9.59515 9.24059 9.35102Z" fill="#1B998B"/>
<path d="M7.72077 23H4.73208C4.38819 23 4.10944 23.2798 4.10944 23.625V26.625C4.10944 26.9702 4.38819 27.25 4.73208 27.25H7.72077C8.06465 27.25 8.34341 26.9702 8.34341 26.625V23.625C8.34341 23.2798 8.06465 23 7.72077 23ZM7.09812 26H5.35472V24.25H7.09812V26Z" fill="#1B998B"/>
<path d="M7.72077 16.25H4.73208C4.38819 16.25 4.10944 16.5298 4.10944 16.875V19.875C4.10944 20.2202 4.38819 20.5 4.73208 20.5H7.72077C8.06465 20.5 8.34341 20.2202 8.34341 19.875V16.875C8.34341 16.5298 8.06465 16.25 7.72077 16.25ZM7.09812 19.25H5.35472V17.5H7.09812V19.25Z" fill="#1B998B"/>
</svg>
