<svg width="29" height="32" viewBox="0 0 29 32" fill="none" xmlns="http://www.w3.org/2000/svg">
<path d="M19.9187 0C19.575 0 19.2963 0.279875 19.2963 0.625V3.5C19.2963 3.84512 19.575 4.125 19.9187 4.125C20.2624 4.125 20.5411 3.84512 20.5411 3.5V0.625C20.5411 0.279875 20.2624 0 19.9187 0Z" fill="#1B998B"/>
<path d="M5.60289 19.5C5.25932 19.5 4.98047 19.78 4.98047 20.125C4.98047 20.47 5.25932 20.75 5.60289 20.75C5.94647 20.75 6.22532 20.47 6.22532 20.125C6.22532 19.78 5.94647 19.5 5.60289 19.5Z" fill="#1B998B"/>
<path d="M28.6326 18.25C28.6326 16.8715 27.5157 15.75 26.1429 15.75H21.4963C22.2157 13.8998 22.5068 11.7221 22.4507 9.7835C22.44 9.41356 22.4259 9.19963 22.4067 9.06494C22.3746 7.7145 21.2703 6.625 19.9186 6.625C18.5458 6.625 17.4289 7.7465 17.4289 9.125V9.75C17.4289 13.7029 12.3739 15.9238 8.55908 16.8762C8.27065 16.2141 7.61225 15.75 6.84766 15.75H0.623402C0.279699 15.75 0.000976562 16.0299 0.000976562 16.375V31.375C0.000976562 31.7201 0.279699 32 0.623402 32H6.84766C7.60714 32 8.26175 31.5421 8.55317 30.8869C8.86905 30.9683 9.16227 31.0452 9.43297 31.1162C11.6062 31.6861 12.8033 32 15.7147 32H22.4083C23.7811 32 24.898 30.8785 24.898 29.5C24.898 28.986 24.7426 28.5079 24.4766 28.1101C25.4381 27.7724 26.1429 26.8499 26.1429 25.75C26.1429 25.2379 25.9912 24.7582 25.7261 24.3586C26.6834 24.0204 27.3877 23.1 27.3877 22C27.3877 21.486 27.2323 21.0079 26.9663 20.6101C27.9278 20.2724 28.6326 19.3499 28.6326 18.25ZM7.47008 30.125C7.47008 30.4696 7.19086 30.75 6.84766 30.75H1.24583V17H6.84766C7.19086 17 7.47008 17.2804 7.47008 17.625V30.125ZM26.1429 19.5C24.8078 19.5 24.4896 19.5 23.0307 19.5C22.687 19.5 22.4083 19.7799 22.4083 20.125C22.4083 20.4701 22.687 20.75 23.0307 20.75H24.898C25.5844 20.75 26.1429 21.3108 26.1429 22C26.1429 22.6904 25.5855 23.25 24.898 23.25H21.7859C21.4422 23.25 21.1634 23.5299 21.1634 23.875C21.1634 24.2201 21.4422 24.5 21.7859 24.5H23.6532C24.3314 24.5 24.898 25.0441 24.898 25.75C24.898 26.4404 24.3407 27 23.6532 27C22.3181 27 21.9999 27 20.541 27C20.1973 27 19.9186 27.2799 19.9186 27.625C19.9186 27.9701 20.1973 28.25 20.541 28.25H22.4083C23.0947 28.25 23.6532 28.8107 23.6532 29.5C23.6532 30.1893 23.0947 30.75 22.4083 30.75H15.7147C12.9632 30.75 11.8885 30.4682 9.74754 29.9067C9.4339 29.8245 9.08988 29.7343 8.71494 29.6383V18.1266C13.2193 17.0492 18.6737 14.4194 18.6737 9.75V9.125C18.6737 8.43575 19.2322 7.875 19.9186 7.875C20.6038 7.875 21.1621 8.43487 21.1634 9.12306V9.125C21.1634 9.39663 21.5011 12.7302 20.1473 15.75H18.0513C17.7076 15.75 17.4289 16.0299 17.4289 16.375C17.4289 16.7201 17.7076 17 18.0513 17C18.486 17 25.4334 17 26.1429 17C26.8293 17 27.3877 17.5608 27.3877 18.25C27.3877 18.9404 26.8304 19.5 26.1429 19.5Z" fill="#1B998B"/>
<path d="M5.60289 22C5.25919 22 4.98047 22.2799 4.98047 22.625V27.625C4.98047 27.9701 5.25919 28.25 5.60289 28.25C5.9466 28.25 6.22532 27.9701 6.22532 27.625V22.625C6.22532 22.2799 5.9466 22 5.60289 22Z" fill="#1B998B"/>
<path d="M14.9392 7.875H12.4495C12.1057 7.875 11.827 8.15488 11.827 8.5C11.827 8.84512 12.1057 9.125 12.4495 9.125H14.9392C15.2829 9.125 15.5616 8.84512 15.5616 8.5C15.5616 8.15488 15.2829 7.875 14.9392 7.875Z" fill="#1B998B"/>
<path d="M27.3878 7.875H24.8981C24.5544 7.875 24.2756 8.15488 24.2756 8.5C24.2756 8.84512 24.5544 9.125 24.8981 9.125H27.3878C27.7315 9.125 28.0102 8.84512 28.0102 8.5C28.0102 8.15488 27.7315 7.875 27.3878 7.875Z" fill="#1B998B"/>
<path d="M25.6399 2.75527C25.3968 2.51127 25.0028 2.51127 24.7596 2.75527L22.9994 4.5227C22.7564 4.76677 22.7564 5.16252 22.9994 5.40664C23.2426 5.6507 23.6365 5.65064 23.8797 5.40664L25.6399 3.6392C25.8829 3.39514 25.8829 2.99939 25.6399 2.75527Z" fill="#1B998B"/>
<path d="M16.8378 4.5227L15.0776 2.75527C14.8345 2.51127 14.4405 2.51127 14.1973 2.75527C13.9543 2.99933 13.9543 3.39508 14.1973 3.6392L15.9575 5.40664C16.2007 5.6507 16.5946 5.65064 16.8378 5.40664C17.0808 5.16258 17.0808 4.76683 16.8378 4.5227Z" fill="#1B998B"/>
</svg>
